<svg xmlns="http://www.w3.org/2000/svg" viewBox="0 0 140 140" width="140" height="140">
  <!-- 勉強フード -->
  <path d="M26 62 Q20 20 70 14 Q120 20 114 62 Q104 40 70 38 Q36 40 26 62 Z" fill="#8F969C"/>
  <path d="M30 60 Q70 44 110 60 Q106 42 70 39 Q34 42 30 60 Z" fill="#185FA5"/>
  <path d="M34 57 Q70 46 106 57 Q102 44 70 41 Q38 44 34 57 Z" fill="#7FB0DE" opacity=".7"/>
  <circle cx="52" cy="28" r="7" fill="#E6F1FB"/>
  <path d="M49 24 L55 24 L55 30 L52 33 L49 30 Z" fill="#185FA5"/>
  <rect x="50.5" y="26" width="3" height="4" fill="#FFFFFF"/>
  <line x1="60" y1="58" x2="56" y2="80" stroke="#5B6268" stroke-width="3" stroke-linecap="round"/>
  <line x1="80" y1="58" x2="84" y2="80" stroke="#5B6268" stroke-width="3" stroke-linecap="round"/>
  <circle cx="56" cy="82" r="2.5" fill="#BA7517"/>
  <circle cx="84" cy="82" r="2.5" fill="#BA7517"/>
</svg>
