<svg xmlns="http://www.w3.org/2000/svg" viewBox="0 0 140 140" width="140" height="140">
  <!-- いぬ（笑顔） -->
  <path d="M28 78 Q14 34 40 30 Q44 62 52 66 Z" fill="#b56a2e"/>
  <path d="M112 78 Q126 34 100 30 Q96 62 88 66 Z" fill="#b56a2e"/>
  <ellipse cx="70" cy="74" rx="44" ry="46" fill="#d98f4e"/>
  <ellipse cx="70" cy="90" rx="30" ry="28" fill="#f4dcb8"/>
  <circle cx="55" cy="60" r="5" fill="#2b2b2b"/><circle cx="53.5" cy="58.2" r="1.6" fill="#fff"/><circle cx="56.6" cy="61.4" r="0.9" fill="#fff" opacity=".8"/><circle cx="85" cy="60" r="5" fill="#2b2b2b"/><circle cx="83.5" cy="58.2" r="1.6" fill="#fff"/><circle cx="86.6" cy="61.4" r="0.9" fill="#fff" opacity=".8"/>
  <ellipse cx="42" cy="76" rx="6" ry="3.6" fill="#e8956a" opacity="0.55"/><ellipse cx="98" cy="76" rx="6" ry="3.6" fill="#e8956a" opacity="0.55"/>
  <ellipse cx="70" cy="89" rx="6" ry="5" fill="#3a2a1c"/>
  <path d="M70 94 V99" stroke="#7a5638" stroke-width="2.2" stroke-linecap="round"/>
  <path d="M60 99 Q70 111 80 99" stroke="#7a5638" stroke-width="2.6" fill="none" stroke-linecap="round"/>
  <path d="M62 106 Q70 110 78 106" fill="#c8607a"/>
</svg>
