<svg xmlns="http://www.w3.org/2000/svg" viewBox="0 0 140 140" width="140" height="140">
  <!-- きつね（笑顔） -->
  <path d="M40 44 L30 12 L58 36 Z" fill="#c8501f"/>
  <path d="M100 44 L110 12 L82 36 Z" fill="#c8501f"/>
  <path d="M43 40 L37 20 L54 35 Z" fill="#2b2b2b"/>
  <path d="M97 40 L103 20 L86 35 Z" fill="#2b2b2b"/>
  <path d="M70 30 Q112 44 100 78 L70 118 L40 78 Q28 44 70 30 Z" fill="#d9612a"/>
  <path d="M70 70 Q92 70 96 86 L70 118 L44 86 Q48 70 70 70 Z" fill="#f6e6cf"/>
  <circle cx="55" cy="60" r="5" fill="#2b2b2b"/><circle cx="53.5" cy="58.2" r="1.6" fill="#fff"/><circle cx="56.6" cy="61.4" r="0.9" fill="#fff" opacity=".8"/><circle cx="85" cy="60" r="5" fill="#2b2b2b"/><circle cx="83.5" cy="58.2" r="1.6" fill="#fff"/><circle cx="86.6" cy="61.4" r="0.9" fill="#fff" opacity=".8"/>
  <ellipse cx="44" cy="72" rx="5.5" ry="3.2" fill="#e8704a" opacity="0.5"/><ellipse cx="96" cy="72" rx="5.5" ry="3.2" fill="#e8704a" opacity="0.5"/>
  <path d="M70 98 l-4.5 4.5 h9 Z" fill="#2b2b2b"/>
  <path d="M70 102.5 V106" stroke="#7a4a30" stroke-width="2" stroke-linecap="round"/>
  <path d="M70 106 Q64 113 58 109 M70 106 Q76 113 82 109" stroke="#7a4a30" stroke-width="2.4" fill="none" stroke-linecap="round"/>
</svg>
