<svg xmlns="http://www.w3.org/2000/svg" viewBox="0 0 140 140" width="140" height="140">
  <!-- パンダ（笑顔） -->
  <circle cx="40" cy="38" r="14" fill="#2b2b2b"/>
  <circle cx="100" cy="38" r="14" fill="#2b2b2b"/>
  <ellipse cx="70" cy="76" rx="46" ry="46" fill="#fbfbfb"/>
  <ellipse cx="52" cy="66" rx="14" ry="9.5" fill="#2b2b2b" transform="rotate(-26 52 66)"/>
  <ellipse cx="88" cy="66" rx="14" ry="9.5" fill="#2b2b2b" transform="rotate(26 88 66)"/>
  <circle cx="55" cy="66" r="4.2" fill="#fff"/>
  <circle cx="85" cy="66" r="4.2" fill="#fff"/>
  <circle cx="55.5" cy="67" r="2.5" fill="#1a1a1a"/>
  <circle cx="84.5" cy="67" r="2.5" fill="#1a1a1a"/>
  <circle cx="54.3" cy="65.2" r="1.1" fill="#fff"/><circle cx="83.5" cy="65.2" r="1.1" fill="#fff"/>
  <ellipse cx="42" cy="80" rx="6" ry="3.4" fill="#f6b9c4" opacity="0.7"/><ellipse cx="98" cy="80" rx="6" ry="3.4" fill="#f6b9c4" opacity="0.7"/>
  <ellipse cx="70" cy="88" rx="5.5" ry="4" fill="#2b2b2b"/>
  <path d="M70 92 V96" stroke="#6b6b6b" stroke-width="2" stroke-linecap="round"/>
  <path d="M61 96 Q70 106 79 96" stroke="#6b6b6b" stroke-width="2.6" fill="none" stroke-linecap="round"/>
</svg>
