<svg xmlns="http://www.w3.org/2000/svg" viewBox="0 0 140 140" width="140" height="140">
  <!-- コアラ（笑顔） -->
  <circle cx="34" cy="52" r="20" fill="#9aa1a7"/><circle cx="34" cy="52" r="12" fill="#c3cbd1"/>
  <circle cx="106" cy="52" r="20" fill="#9aa1a7"/><circle cx="106" cy="52" r="12" fill="#c3cbd1"/>
  <ellipse cx="70" cy="76" rx="42" ry="42" fill="#9aa1a7"/>
  <circle cx="55" cy="62" r="5" fill="#2b2b2b"/><circle cx="53.5" cy="60.2" r="1.6" fill="#fff"/><circle cx="56.6" cy="63.4" r="0.9" fill="#fff" opacity=".8"/>
  <circle cx="85" cy="62" r="5" fill="#2b2b2b"/><circle cx="83.5" cy="60.2" r="1.6" fill="#fff"/><circle cx="86.6" cy="63.4" r="0.9" fill="#fff" opacity=".8"/>
  <ellipse cx="44" cy="80" rx="6" ry="3.6" fill="#f1a6b4" opacity="0.5"/><ellipse cx="96" cy="80" rx="6" ry="3.6" fill="#f1a6b4" opacity="0.5"/>
  <path d="M70 84 Q60 84 60 92 Q60 100 70 100 Q80 100 80 92 Q80 84 70 84 Z" fill="#4a4a4a"/>
  <path d="M62 96 Q70 104 78 96" stroke="#6b6b6b" stroke-width="2.4" fill="none" stroke-linecap="round"/>
</svg>
