<svg xmlns="http://www.w3.org/2000/svg" viewBox="0 0 140 140" width="140" height="140">
  <!-- ふくろう（笑顔） -->
  <path d="M36 44 Q34 28 46 26 Q52 34 50 46 Z" fill="#8a6a4a"/>
  <path d="M104 44 Q106 28 94 26 Q88 34 90 46 Z" fill="#8a6a4a"/>
  <ellipse cx="70" cy="80" rx="42" ry="44" fill="#a07a54"/>
  <ellipse cx="70" cy="92" rx="30" ry="30" fill="#d8c4a6"/>
  <circle cx="55" cy="62" r="16" fill="#f3ead6"/>
  <circle cx="85" cy="62" r="16" fill="#f3ead6"/>
  <circle cx="55" cy="62" r="8" fill="#2b2b2b"/><circle cx="85" cy="62" r="8" fill="#2b2b2b"/>
  <circle cx="52.5" cy="59.5" r="2.4" fill="#fff"/><circle cx="82.5" cy="59.5" r="2.4" fill="#fff"/>
  <ellipse cx="40" cy="80" rx="6" ry="3.6" fill="#e0a88a" opacity="0.45"/><ellipse cx="100" cy="80" rx="6" ry="3.6" fill="#e0a88a" opacity="0.45"/>
  <path d="M70 72 l-5 8 h10 Z" fill="#e0a53a"/>
  <path d="M70 80 l-4 6 h8 Z" fill="#c98a26"/>
</svg>
